<?xml version="1.0"?>
<svg xmlns="http://www.w3.org/2000/svg" xmlns:xlink="http://www.w3.org/1999/xlink" xmlns:svgjs="http://svgjs.com/svgjs" version="1.1" width="512" height="512" x="0" y="0" viewBox="0 0 512 512" style="enable-background:new 0 0 512 512" xml:space="preserve" class=""><g><g xmlns="http://www.w3.org/2000/svg"><g><path d="m379.177 232.323-13.885-12.544c-30.467-27.524-55.206-60.542-73.042-97.147-3.954-8.114-12.116-13.329-21.142-13.329h-41.802c-9.026 0-17.188 5.215-21.142 13.329-17.836 36.604-42.575 69.623-73.042 97.147l-13.885 12.544c-33.275 30.061-52.265 72.807-52.265 117.65v24.03c0 36.95 29.954 66.904 66.904 66.904 5.824 0 11.473-.747 16.857-2.148 13.187-3.432 27.072.666 36.306 10.686 15.198 16.49 36.973 26.823 61.168 26.823s45.97-10.333 61.168-26.824c9.189-9.971 23.013-14.184 36.125-10.732 5.148 1.355 10.538 2.112 16.093 2.189 37.49.52 67.849-30.491 67.849-67.984v-22.943c0-44.844-18.99-87.59-52.265-117.651z" fill="#ce9875" data-original="#ce9875" style="" class=""/></g><g><g><path d="m379.177 232.323-13.885-12.544c-30.467-27.524-55.206-60.542-73.042-97.147-3.954-8.114-12.116-13.329-21.142-13.329h-41.631c17.641 34.778 41.555 66.2 70.744 92.569l13.885 12.544c33.275 30.061 52.265 72.807 52.265 117.65v22.943c0 37.494-30.359 68.505-67.849 67.984-5.556-.077-10.946-.833-16.093-2.189-13.112-3.452-26.936.762-36.125 10.732-12.552 13.621-29.598 23.021-48.782 25.887 14.346 11.766 32.683 18.843 52.686 18.843 24.195 0 45.97-10.333 61.168-26.824 9.189-9.971 23.013-14.185 36.125-10.732 5.148 1.355 10.538 2.111 16.093 2.189 37.49.52 67.849-30.491 67.849-67.984v-22.943c-.001-44.842-18.99-87.588-52.266-117.649z" fill="#c6865c" data-original="#c6865c" style="" class=""/></g></g><path d="m267.448 284.609c-3.736-1.321-7.166-2.583-10.33-3.801v-51.603c9.713 1.538 15.555 6.567 15.985 6.949 3.172 2.886 8.083 2.674 10.993-.482 2.924-3.17 2.725-8.11-.445-11.033-.566-.522-10.428-9.408-26.533-11.199v-11.61c0-4.313-3.496-7.808-7.808-7.808s-7.808 3.495-7.808 7.808v12.252c-1.986.373-4.02.853-6.114 1.483-13.541 4.08-23.664 15.693-26.418 30.307-2.498 13.254 1.699 25.997 10.953 33.255 5.362 4.206 12.118 8.054 21.578 12.176v63.87c-9.471-.377-15.213-2.095-25.315-8.703-3.608-2.36-8.448-1.35-10.809 2.26-2.361 3.608-1.349 8.448 2.259 10.808 13.246 8.666 21.72 10.837 33.864 11.258v12.946c0 4.313 3.496 7.808 7.808 7.808s7.808-3.495 7.808-7.808v-13.496c22.548-3.571 35.701-21.786 38.557-38.773 3.557-21.151-7.523-39.546-28.225-46.864zm-37.887-17.77c-4.649-3.647-6.659-10.572-5.245-18.075 1.309-6.948 6.088-15.389 15.576-18.247.542-.163 1.078-.309 1.609-.447v44.022c-4.979-2.466-8.856-4.835-11.94-7.253zm50.714 62.045c-1.797 10.685-9.682 22.098-23.157 25.419v-56.82c1.655.606 3.348 1.219 5.126 1.848 20.143 7.121 18.893 24.42 18.031 29.553z" fill="#eab680" data-original="#eab680" style="" class=""/><path d="m355.987 325.426c-2.463-.11-4.938-3.174-7.428-3.174-88.517 0-160.607 70.33-163.438 158.159-.095 2.935 2.274 5.365 5.211 5.365h70.938l17.244-3c.134-38.573 31.439-66.803 70.044-66.803 2.51 0 4.986.138 7.428.396v-90.943z" fill="#c8ea73" data-original="#c8ea73" style="" class=""/><path d="m355.987 325.426c-2.463-.11-4.938-3.174-7.428-3.174-6.849 0-13.599.424-20.226 1.241 9.495 1.169 18.734 3.162 27.654 5.887z" fill="#aad880" data-original="#aad880" style="" class=""/><g><path d="m151.843 163.514c-1.726 0-3.463-.569-4.909-1.741l-20.497-16.6c-3.351-2.713-3.867-7.63-1.154-10.981 2.715-3.352 7.63-3.868 10.982-1.154l20.497 16.6c3.351 2.713 3.867 7.63 1.154 10.981-1.544 1.906-3.799 2.895-6.073 2.895z" fill="#3dae7a" data-original="#ffe07d" style="" class=""/></g><g><path d="m268.494 23.521-13.889-8.687c-2.691-1.683-6.107-1.683-8.798 0l-13.888 8.687c-2.691 1.683-6.107 1.683-8.798 0l-17.445-10.911c-2.653-1.659-5.719-2.539-8.849-2.539h-12.244c-1.857 0-3.002 2.029-2.042 3.618l67.665 112.056 67.665-112.056c.96-1.59-.185-3.618-2.042-3.618h-12.243c-3.129 0-6.196.88-8.849 2.539l-17.445 10.912c-2.691 1.683-6.107 1.683-8.798-.001z" fill="#ce9875" data-original="#ce9875" style="" class=""/></g><g><g><path d="m315.829 10.07h-12.243c-3.129 0-6.196.88-8.849 2.539l-9.21 5.761-50.079 82.933 14.759 24.441 67.665-112.056c.959-1.589-.186-3.618-2.043-3.618z" fill="#c6865c" data-original="#c6865c" style="" class=""/></g></g><g><g><path d="m249.301 128.366c-14.789 0-23.026-4.697-29.04-8.126-2.982-1.701-4.953-2.824-7.664-3.447-8.405-1.933-13.651-10.314-11.718-18.719 1.933-8.406 10.313-13.655 18.719-11.718 7.189 1.653 12.148 4.481 16.133 6.754 4.553 2.596 7.06 4.025 13.57 4.025s9.017-1.429 13.57-4.025c4.514-2.574 10.132-5.778 18.757-7.284 8.497-1.483 16.586 4.201 18.07 12.696 1.483 8.496-4.201 16.586-12.696 18.07-3.26.569-5.294 1.728-8.661 3.649-6.014 3.428-14.251 8.125-29.04 8.125z" fill="#3dae7a" data-original="#ffd064" style="" class=""/></g></g><g><path d="m299.698 98.521c-1.31-7.496-7.762-12.795-15.099-12.921.136.49.252.99.341 1.502 1.483 8.496-4.201 16.586-12.696 18.07-3.26.569-5.294 1.728-8.661 3.649-6.015 3.429-14.251 8.126-29.04 8.126s-23.026-4.697-29.04-8.126c-1.593-.908-2.897-1.647-4.179-2.238 1.685 4.952 5.801 8.951 11.274 10.209 2.711.623 4.681 1.747 7.664 3.447 6.015 3.429 14.251 8.126 29.04 8.126s23.026-4.697 29.04-8.126c3.367-1.92 5.4-3.079 8.661-3.649 8.494-1.483 14.178-9.573 12.695-18.069z" fill="#3dae7a" data-original="#ffc250" style="" class=""/></g><g><g><circle cx="82.767" cy="91.145" fill="#3dae7a" r="34.131" data-original="#ffe07d" style="" class=""/></g><g><path d="m95.945 59.653c1.699 4.055 2.64 8.506 2.64 13.178 0 18.85-15.281 34.131-34.131 34.131-4.672 0-9.123-.941-13.178-2.64 5.156 12.307 17.313 20.953 31.491 20.953 18.85 0 34.131-15.281 34.131-34.131.001-14.178-8.646-26.335-20.953-31.491z" fill="#3dae7a" data-original="#ffd064" style="" class=""/></g></g><g><path d="m347.91 163.514c-2.275 0-4.529-.988-6.072-2.894-2.714-3.351-2.198-8.267 1.154-10.981l20.498-16.6c3.352-2.717 8.267-2.197 10.981 1.154s2.198 8.267-1.154 10.981l-20.498 16.6c-1.447 1.171-3.184 1.74-4.909 1.74z" fill="#3dae7a" data-original="#ffe07d" style="" class=""/></g><g><g><circle cx="418.06" cy="91.145" fill="#3dae7a" r="34.131" data-original="#ffe07d" style="" class=""/></g><g><path d="m431.238 59.653c1.699 4.055 2.64 8.506 2.64 13.178 0 18.85-15.281 34.131-34.131 34.131-4.672 0-9.123-.941-13.178-2.64 5.156 12.307 17.313 20.953 31.491 20.953 18.85 0 34.131-15.281 34.131-34.131 0-14.178-8.646-26.335-20.953-31.491z" fill="#3dae7a" data-original="#ffd064" style="" class=""/></g></g><g><g><circle cx="34.131" cy="201.829" fill="#3dae7a" r="34.131" data-original="#ffe07d" style="" class=""/></g><g><path d="m47.309 170.337c1.699 4.055 2.64 8.506 2.64 13.178 0 18.85-15.281 34.131-34.131 34.131-4.672 0-9.123-.941-13.178-2.64 5.156 12.307 17.313 20.953 31.491 20.953 18.85 0 34.131-15.281 34.131-34.131.001-14.178-8.646-26.334-20.953-31.491z" fill="#3dae7a" data-original="#ffd064" style="" class=""/></g></g><g><g><circle cx="465.24" cy="201.829" fill="#3dae7a" r="34.131" data-original="#ffe07d" style="" class=""/></g><g><path d="m478.418 170.337c1.699 4.055 2.64 8.506 2.64 13.178 0 18.85-15.281 34.131-34.131 34.131-4.672 0-9.123-.941-13.178-2.64 5.156 12.307 17.313 20.953 31.491 20.953 18.85 0 34.131-15.281 34.131-34.131 0-14.178-8.647-26.334-20.953-31.491z" fill="#3dae7a" data-original="#ffd064" style="" class=""/></g></g><g><path d="m107.708 217.203h-14.933c-4.312 0-7.808-3.495-7.808-7.808s3.496-7.808 7.808-7.808h14.933c4.312 0 7.808 3.495 7.808 7.808s-3.496 7.808-7.808 7.808z" fill="#3dae7a" data-original="#ffe07d" style="" class=""/></g><g><path d="m405.697 217.203h-14.933c-4.313 0-7.808-3.495-7.808-7.808s3.495-7.808 7.808-7.808h14.933c4.313 0 7.808 3.495 7.808 7.808s-3.495 7.808-7.808 7.808z" fill="#3dae7a" data-original="#ffe07d" style="" class=""/></g><path d="m403.192 442.209 66.378-61.404c-1.751-1.926-3.548-8.81-5.389-10.651-29.591-29.593-70.466-47.902-115.622-47.902v93.721c22.101 0 41.796 10.247 54.633 26.236z" fill="#3dae7a" data-original="#ffd064" style="" class=""/><path d="m446.616 398.768 22.954-17.963c-1.751-1.926-3.548-8.81-5.389-10.651-29.591-29.593-70.466-47.902-115.622-47.902v5.038c41.131 10.457 76.034 36.504 98.057 71.478z" fill="#3dae7a" data-original="#ffc250" style="" class=""/><g><path d="m464.181 370.154-66.215 66.215c12.695 12.632 20.571 26.098 20.638 45.406l17.244 4h70.938c2.937 0 5.306-2.43 5.211-5.365-1.387-43.023-19.4-81.84-47.816-110.256z" fill="#dd636e" data-original="#dd636e" style="" class=""/></g><g><path d="m464.181 370.154-21.977 21.977c18.564 26.526 29.464 58.811 29.464 93.645h35.118c2.937 0 5.306-2.43 5.211-5.365-1.387-43.024-19.4-81.841-47.816-110.257z" fill="#da4a54" data-original="#da4a54" style="" class=""/></g><g><path d="m348.56 398.488c-48.208 0-87.288 39.08-87.288 87.288h174.577c-.001-48.208-39.082-87.288-87.289-87.288z" fill="#f9f6f9" data-original="#f9f6f9" style="" class=""/></g><g><path d="m348.56 398.488c-4.075 0-8.078.302-12.005.842 42.524 5.853 75.284 42.313 75.284 86.446h24.009c0-48.208-39.081-87.288-87.288-87.288z" fill="#dddaec" data-original="#dddaec" style="" class=""/></g><g><path d="m342.444 500.809c-10.454-3.641-15.977-15.068-12.336-25.522l2.317-6.652c4.087-11.735 9.607-22.92 16.434-33.302l30.304-46.085c1.189-1.808 4.005-.827 3.814 1.328l-4.884 54.939c-1.1 12.377-3.724 24.571-7.811 36.306l-2.317 6.652c-3.64 10.454-15.067 15.977-25.521 12.336z" fill="#407093" data-original="#407093" style=""/></g><g><path d="m379.164 389.248-14.354 21.829-2.263 25.459c-1.1 12.377-3.724 24.571-7.811 36.306l-2.317 6.652c-3.017 8.661-11.378 13.918-20.102 13.403 2.337 3.553 5.801 6.405 10.127 7.912 10.454 3.641 21.881-1.882 25.522-12.336l2.317-6.652c4.087-11.734 6.711-23.929 7.811-36.306l4.884-54.939c.191-2.155-2.625-3.136-3.814-1.328z" fill="#2b4d66" data-original="#2b4d66" style="" class=""/></g></g></g></svg>
